<?xml version="1.0" standalone="no"?>
<!DOCTYPE svg PUBLIC "-//W3C//DTD SVG 20010904//EN"
 "http://www.w3.org/TR/2001/REC-SVG-20010904/DTD/svg10.dtd">
<svg version="1.0" xmlns="http://www.w3.org/2000/svg"
 width="500.000000pt" height="500.000000pt" viewBox="0 0 500.000000 500.000000"
 preserveAspectRatio="xMidYMid meet">

<g transform="translate(0.000000,500.000000) scale(0.100000,-0.100000)"
fill="#000000" stroke="none">
<path d="M2275 4419 c-460 -61 -847 -254 -1163 -579 -268 -274 -447 -625 -518
-1015 -23 -126 -26 -508 -6 -625 48 -265 131 -494 256 -699 286 -470 748 -794
1287 -903 102 -21 142 -23 374 -23 235 0 270 2 370 24 392 83 703 249 979 519
281 277 468 620 547 1008 31 150 38 490 15 652 -121 820 -748 1468 -1571 1623
-126 24 -451 34 -570 18z m472 -104 c312 -41 614 -165 866 -357 100 -76 269
-245 345 -345 325 -427 448 -975 338 -1497 -54 -254 -180 -525 -344 -740 -73
-96 -258 -276 -362 -353 -353 -261 -801 -390 -1228 -354 -446 38 -842 220
-1152 531 -297 296 -475 660 -531 1085 -17 129 -6 431 20 559 76 371 250 693
518 958 172 171 340 285 553 378 171 73 378 128 545 143 106 10 326 5 432 -8z"/>
<path d="M3126 3363 c-272 -58 -494 -272 -577 -555 l-8 -28 117 0 118 0 18 73
c54 207 175 381 311 443 180 82 443 30 586 -116 82 -84 111 -152 149 -342 11
-55 13 -58 41 -58 l29 0 0 218 c0 119 3 247 7 285 l6 67 -30 0 c-29 0 -31 -3
-38 -47 -9 -64 -31 -103 -56 -103 -12 0 -58 24 -102 54 -145 96 -248 127 -417
125 -47 0 -116 -7 -154 -16z"/>
<path d="M903 3333 c-8 -21 5 -43 24 -43 31 0 83 -39 111 -83 15 -24 60 -130
101 -235 l74 -192 118 0 c66 0 119 4 119 9 0 5 -29 86 -65 181 -72 191 -83
236 -65 270 14 26 67 50 112 50 41 0 61 12 56 34 -3 15 -31 17 -292 19 -223 2
-290 -1 -293 -10z"/>
<path d="M2037 3344 c-4 -4 -7 -15 -7 -25 0 -17 27 -28 70 -29 43 -1 108 -37
130 -72 35 -57 24 -130 -50 -326 -22 -58 -40 -107 -40 -109 0 -2 12 -3 28 -3
26 0 30 8 96 182 80 209 126 282 200 317 31 15 46 29 46 42 0 18 -10 19 -219
19 -121 0 -226 2 -233 5 -8 3 -17 2 -21 -1z"/>
<path d="M1213 2559 c12 -48 38 -100 49 -97 13 5 50 97 45 112 -3 6 -15 -11
-27 -39 l-22 -50 -14 40 c-17 48 -40 73 -31 34z"/>
<path d="M1476 2523 c-15 -31 -24 -59 -20 -62 3 -3 10 2 15 12 13 22 58 22 75
0 7 -10 14 -16 17 -13 6 7 -44 120 -54 120 -4 0 -19 -25 -33 -57z m47 -3 c4
-15 0 -20 -15 -20 -14 0 -18 5 -14 16 3 9 6 20 6 25 0 17 17 1 23 -21z"/>
<path d="M1740 2567 c-31 -16 -39 -61 -14 -88 17 -19 40 -24 68 -13 27 10 18
22 -15 20 -38 -1 -60 25 -43 52 8 11 23 16 45 15 32 -1 33 0 15 13 -24 17 -25
17 -56 1z"/>
<path d="M1977 2523 c-25 -58 -26 -83 -3 -50 7 9 23 17 36 17 13 0 29 -8 36
-17 7 -10 15 -15 18 -12 8 7 -43 119 -53 119 -5 0 -20 -26 -34 -57z m47 1 c9
-23 8 -24 -14 -24 -11 0 -20 2 -20 4 0 12 13 36 20 36 4 0 11 -7 14 -16z"/>
<path d="M2220 2520 c0 -33 4 -60 10 -60 6 0 10 19 10 42 l0 42 31 -42 c17
-23 35 -42 40 -42 5 0 9 28 9 62 0 65 -16 71 -22 9 l-3 -35 -29 42 c-16 23
-33 42 -37 42 -5 0 -9 -27 -9 -60z"/>
<path d="M2495 2556 c-30 -30 -32 -49 -4 -77 21 -21 69 -23 76 -3 2 7 -8 9
-26 6 -22 -3 -32 1 -40 16 -20 37 10 70 50 57 11 -4 19 -2 19 4 0 6 -4 11 -9
11 -5 0 -16 3 -25 6 -9 3 -26 -5 -41 -20z"/>
<path d="M2720 2575 c0 -3 9 -23 20 -45 11 -22 20 -46 20 -55 0 -8 5 -15 10
-15 6 0 10 9 10 20 0 12 7 35 16 51 8 17 13 36 11 42 -2 7 -12 -3 -21 -22
l-18 -33 -19 31 c-17 29 -29 39 -29 26z"/>
<path d="M3182 2568 c-53 -26 -29 -112 30 -106 42 4 47 23 7 23 -39 0 -60 26
-43 53 8 11 23 16 43 16 17 -1 31 2 31 7 0 5 -4 9 -9 9 -5 0 -15 2 -23 4 -7 3
-23 0 -36 -6z"/>
<path d="M3410 2520 c0 -33 4 -60 10 -60 6 0 10 7 10 15 0 8 9 15 19 15 10 0
21 -7 25 -15 3 -8 10 -15 16 -15 7 0 8 6 0 19 -7 13 -7 22 0 26 5 3 10 17 10
31 0 25 -30 44 -71 44 -17 0 -19 -7 -19 -60z m65 15 c0 -13 -8 -21 -22 -23
-19 -3 -23 1 -23 23 0 22 4 26 23 23 14 -2 22 -10 22 -23z"/>
<path d="M3660 2520 c0 -33 4 -60 10 -60 6 0 10 17 11 38 l0 37 16 -32 c9 -18
19 -33 23 -33 4 0 14 15 23 33 l16 32 0 -37 c1 -21 6 -38 11 -38 6 0 10 27 10
60 0 68 -12 77 -37 25 -9 -19 -20 -35 -23 -35 -3 0 -14 16 -23 35 -25 52 -37
43 -37 -25z"/>
<path d="M2965 2510 c3 -5 13 -10 21 -10 8 0 14 5 14 10 0 6 -9 10 -21 10 -11
0 -17 -4 -14 -10z"/>
<path d="M1423 2238 c17 -43 222 -572 239 -615 15 -42 24 -53 41 -53 20 0 36
36 145 320 68 176 126 329 129 340 4 16 0 20 -20 20 -23 0 -30 -13 -93 -180
-61 -157 -70 -176 -80 -157 -6 12 -37 93 -69 180 l-58 157 -120 0 c-91 0 -118
-3 -114 -12z"/>
<path d="M2510 2243 c0 -5 9 -44 20 -88 51 -212 160 -380 311 -481 143 -95
274 -128 477 -122 125 4 144 7 217 36 44 18 114 54 156 81 43 27 85 52 95 55
35 11 58 -21 69 -96 7 -45 9 -48 38 -48 l30 0 -6 68 c-4 37 -7 172 -7 300 l0
232 -29 0 c-28 0 -29 -1 -40 -82 -27 -188 -69 -284 -157 -368 -98 -93 -225
-134 -394 -128 -99 3 -112 6 -182 40 -168 84 -293 281 -338 536 l-13 72 -124
0 c-67 0 -123 -3 -123 -7z"/>
</g>
</svg>
